<?plantuml 1.2026.2?><svg xmlns="http://www.w3.org/2000/svg" xmlns:xlink="http://www.w3.org/1999/xlink" contentStyleType="text/css" data-diagram-type="DESCRIPTION" height="397px" preserveAspectRatio="none" style="width:694px;height:397px;background:#FFFFFF;" version="1.1" viewBox="0 0 694 397" width="694px" zoomAndPan="magnify"><defs/><g><!--cluster mwaeckerlin/openclaw:gateway--><g class="cluster" data-qualified-name="mwaeckerlin.openclaw.gateway" data-source-line="44" id="ent0002"><polygon fill="none" points="16,138.5,26,128.5,303,128.5,303,220.5,293,230.5,16,230.5,16,138.5" style="stroke:#181818;stroke-width:1;"/><line style="stroke:#181818;stroke-width:1;" x1="293" x2="303" y1="138.5" y2="128.5"/><line style="stroke:#181818;stroke-width:1;" x1="16" x2="293" y1="138.5" y2="138.5"/><line style="stroke:#181818;stroke-width:1;" x1="293" x2="293" y1="138.5" y2="230.5"/><text fill="#000000" font-family="sans-serif" font-size="14" font-weight="bold" lengthAdjust="spacing" textLength="211.6406" x="49.6797" y="154.6318">mwaeckerlin/openclaw:gateway</text></g><!--cluster mwaeckerlin/openclaw:sandbox--><g class="cluster" data-qualified-name="mwaeckerlin.openclaw.sandbox" data-source-line="47" id="ent0004"><polygon fill="none" points="388,138.5,398,128.5,677,128.5,677,220.5,667,230.5,388,230.5,388,138.5" style="stroke:#181818;stroke-width:1;"/><line style="stroke:#181818;stroke-width:1;" x1="667" x2="677" y1="138.5" y2="128.5"/><line style="stroke:#181818;stroke-width:1;" x1="388" x2="667" y1="138.5" y2="138.5"/><line style="stroke:#181818;stroke-width:1;" x1="667" x2="667" y1="138.5" y2="230.5"/><text fill="#000000" font-family="sans-serif" font-size="14" font-weight="bold" lengthAdjust="spacing" textLength="213.958" x="421.521" y="154.6318">mwaeckerlin/openclaw:sandbox</text></g><!--cluster mwaeckerlin/openclaw-mcp-gateway--><g class="cluster" data-qualified-name="mwaeckerlin.openclaw-mcp-gateway" data-source-line="50" id="ent0006"><polygon fill="none" points="82,288.5,92,278.5,403,278.5,403,370.5,393,380.5,82,380.5,82,288.5" style="stroke:#181818;stroke-width:1;"/><line style="stroke:#181818;stroke-width:1;" x1="393" x2="403" y1="288.5" y2="278.5"/><line style="stroke:#181818;stroke-width:1;" x1="82" x2="393" y1="288.5" y2="288.5"/><line style="stroke:#181818;stroke-width:1;" x1="393" x2="393" y1="288.5" y2="380.5"/><text fill="#000000" font-family="sans-serif" font-size="14" font-weight="bold" lengthAdjust="spacing" textLength="245.0889" x="115.9556" y="304.6318">mwaeckerlin/openclaw-mcp-gateway</text></g><!--entity gateway--><g class="entity" data-qualified-name="mwaeckerlin.openclaw.gateway.gateway" data-source-line="45" id="ent0003"><rect fill="#F1F1F1" height="46.0986" rx="2.5" ry="2.5" style="stroke:#181818;stroke-width:0.5;" width="165.2754" x="76.5" y="168.5"/><rect fill="#F1F1F1" height="10" style="stroke:#181818;stroke-width:0.5;" width="15" x="221.7754" y="173.5"/><rect fill="#F1F1F1" height="2" style="stroke:#181818;stroke-width:0.5;" width="4" x="219.7754" y="175.5"/><rect fill="#F1F1F1" height="2" style="stroke:#181818;stroke-width:0.5;" width="4" x="219.7754" y="179.5"/><text fill="#000000" font-family="sans-serif" font-size="14" lengthAdjust="spacing" textLength="125.2754" x="91.5" y="201.6318">OpenClaw-Gateway</text></g><!--entity sandbox--><g class="entity" data-qualified-name="mwaeckerlin.openclaw.sandbox.sandbox" data-source-line="48" id="ent0005"><rect fill="#F1F1F1" height="46.0986" rx="2.5" ry="2.5" style="stroke:#181818;stroke-width:0.5;" width="128.7168" x="465.5" y="168.5"/><rect fill="#F1F1F1" height="10" style="stroke:#181818;stroke-width:0.5;" width="15" x="574.2168" y="173.5"/><rect fill="#F1F1F1" height="2" style="stroke:#181818;stroke-width:0.5;" width="4" x="572.2168" y="175.5"/><rect fill="#F1F1F1" height="2" style="stroke:#181818;stroke-width:0.5;" width="4" x="572.2168" y="179.5"/><text fill="#000000" font-family="sans-serif" font-size="14" lengthAdjust="spacing" textLength="88.7168" x="480.5" y="201.6318">SSH-Sandbox</text></g><!--entity mcp--><g class="entity" data-qualified-name="mwaeckerlin.openclaw-mcp-gateway.mcp" data-source-line="51" id="ent0007"><rect fill="#F1F1F1" height="46.0986" rx="2.5" ry="2.5" style="stroke:#181818;stroke-width:0.5;" width="201.0479" x="136.5" y="318.5"/><rect fill="#F1F1F1" height="10" style="stroke:#181818;stroke-width:0.5;" width="15" x="317.5479" y="323.5"/><rect fill="#F1F1F1" height="2" style="stroke:#181818;stroke-width:0.5;" width="4" x="315.5479" y="325.5"/><rect fill="#F1F1F1" height="2" style="stroke:#181818;stroke-width:0.5;" width="4" x="315.5479" y="329.5"/><text fill="#000000" font-family="sans-serif" font-size="14" lengthAdjust="spacing" textLength="161.0479" x="151.5" y="351.6318">OpenClaw-MCP-Gateway</text></g><!--entity AI-Agent--><g class="entity" data-qualified-name="AI-Agent" data-source-line="57" id="ent0012"><ellipse cx="530.2378" cy="14" fill="#F1F1F1" rx="8" ry="8" style="stroke:#181818;stroke-width:0.5;"/><path d="M530.2378,22 L530.2378,49 M517.2378,30 L543.2378,30 M530.2378,49 L517.2378,64 M530.2378,49 L543.2378,64" fill="none" style="stroke:#181818;stroke-width:0.5;"/><text fill="#000000" font-family="sans-serif" font-size="14" lengthAdjust="spacing" textLength="54.4756" x="503" y="78.6318">AI-Agent</text></g><!--link gateway to sandbox--><g class="link" data-entity-1="ent0003" data-entity-2="ent0005" data-link-type="dependency" data-source-line="54" id="lnk8"><path d="M241.8,191.5 C309.28,191.5 397.25,191.5 459.3,191.5" fill="none" id="gateway-to-sandbox" style="stroke:#181818;stroke-width:1;"/><polygon fill="#181818" points="465.3,191.5,456.3,187.5,460.3,191.5,456.3,195.5,465.3,191.5" style="stroke:#181818;stroke-width:1;"/><text fill="#000000" font-family="sans-serif" font-size="13" lengthAdjust="spacing" textLength="187.8652" x="260" y="185.6938">ssh (agent executes commands)</text></g><!--link sandbox to mcp--><g class="link" data-entity-1="ent0005" data-entity-2="ent0007" data-link-type="dependency" data-source-line="55" id="lnk9"><path d="M486.13,214.66 C430.74,242.64 341.3555,287.7847 286.0455,315.7247" fill="none" id="sandbox-to-mcp" style="stroke:#181818;stroke-width:1;"/><polygon fill="#181818" points="280.69,318.43,290.5268,317.9423,285.1529,316.1756,286.9197,310.8017,280.69,318.43" style="stroke:#181818;stroke-width:1;"/><text fill="#000000" font-family="sans-serif" font-size="13" lengthAdjust="spacing" textLength="83.0781" x="419" y="259.6938">MCP tool calls</text></g><!--reverse link gateway to mcp--><g class="link" data-entity-1="ent0003" data-entity-2="ent0007" data-link-type="dependency" data-source-line="56" id="lnk11"><path d="M173.4768,219.9683 C188.1768,247.8683 210.5,290.22 225.24,318.19" fill="none" id="gateway-backto-mcp" style="stroke:#181818;stroke-width:1;"/><polygon fill="#181818" points="170.68,214.66,171.3364,224.487,173.0107,219.0836,178.4141,220.7579,170.68,214.66" style="stroke:#181818;stroke-width:1;"/><text fill="#000000" font-family="sans-serif" font-size="13" lengthAdjust="spacing" textLength="118.4854" x="197" y="259.6938">forward verified calls</text></g><!--link AI-Agent to sandbox--><g class="link" data-entity-1="ent0012" data-entity-2="ent0005" data-link-type="dependency" data-source-line="57" id="lnk13"><path d="M530,81.72 C530,109.09 530,139.38 530,162.34" fill="none" id="AI-Agent-to-sandbox" style="stroke:#181818;stroke-width:1;stroke-dasharray:7,7;"/><polygon fill="#181818" points="530,168.34,534,159.34,530,163.34,526,159.34,530,168.34" style="stroke:#181818;stroke-width:1;"/></g><?plantuml-src VOwnJWCn44HxVyKe5HGRUXT8KGgWG21TYIYClRcSyDadsy51Y7zdB_4XKGINuxTl9aJ7M8tLi7tdv8Tm4oSErfkgUrEuciyLlXJmyYJnLcAwEyUlC1aDKTygNFPa4znRF3PFrzrJTqvEYlRxhu96Ez65EO_Rvp-J11MNQZI8qj3l2z7jqWIDdFUuCZs70ZwoFHJEi74S1SZNQk78nHhaJeoGfo5LA35wMEDzLdDEXqc8fUn4xMAg9ZbyS1fs0xj6wyq3RUPAZVKiNlyE-W40?></g></svg>